<svg width="48" height="48" viewBox="0 0 48 48" fill="none" xmlns="http://www.w3.org/2000/svg">
<path d="M30.764 15.6919V1.48389H26.26V15.6919H21.73V1.48389H17.226V15.6919H2V38.1119H5.66V46.1119H12.34V38.1119H15.68V46.1119H22.34V38.1119H25.68V46.1119H32.34V38.1119H35.68V46.1119H42.34V38.1119H46V15.6919H30.764ZM15.82 32.8319C12.32 32.8319 9.66 30.2719 9.66 26.7119C9.66 23.1519 12.34 20.5919 16 20.5919C18 20.5919 19.66 21.4519 20.5 22.8119L18.84 24.3519C18.16 23.5119 17.16 22.9919 16 22.9919C14 22.9919 12.34 24.5119 12.34 26.7319L12.32 26.7119C12.32 28.9119 14 30.4519 16.16 30.4519C17.34 30.4519 18.16 29.9519 19 29.0919L20.66 30.7919C19.48 32.1519 17.82 32.8319 15.82 32.8319ZM27.84 30.7919C29.02 30.7919 29.84 30.2919 30.68 29.4319L32.34 30.9719C31.16 32.3319 29.5 33.0119 27.5 33.0119C24 33.0119 21.34 30.4519 21.34 26.8919C21.34 23.3319 24.02 20.7719 27.68 20.7719C29.5 20.7719 31.18 21.4519 32.34 22.8119L30.68 24.3519C30 23.5119 29 22.9919 27.84 22.9919C25.684 22.9919 24.186 24.5079 24.18 26.7219C24.184 28.9159 25.842 30.4519 27.84 30.7919ZM37.02 32.6919H34.36V20.9519H37.02V32.6919ZM24.18 26.7119C24.18 26.7119 24.18 26.7179 24.18 26.7219C24.18 26.7259 24.18 26.7279 24.18 26.7319V26.7119Z" fill="#1C1B1F"></path>
</svg>