<svg width="48" height="48" viewBox="0 0 48 48" fill="none" xmlns="http://www.w3.org/2000/svg">
<path d="M30.77 16.94V2.146H26.266V15.984C25.522 15.908 24.766 15.868 24 15.868C23.234 15.868 22.48 15.908 21.734 15.984V2.146H17.23V16.94C8.394 19.796 2 28.08 2 37.868H46C46 28.082 39.604 19.796 30.77 16.94ZM11.596 30.1C11.75 30.482 11.968 30.812 12.246 31.094C12.526 31.374 12.858 31.59 13.24 31.744C13.622 31.898 14.042 31.974 14.5 31.974C14.986 31.974 15.436 31.874 15.852 31.674C16.268 31.474 16.638 31.182 16.966 30.798L18.436 32.142C17.97 32.712 17.39 33.146 16.7 33.444C16.01 33.742 15.236 33.892 14.376 33.892C13.62 33.892 12.918 33.768 12.27 33.52C11.62 33.274 11.06 32.92 10.582 32.464C10.106 32.006 9.736 31.47 9.47 30.854C9.204 30.236 9.07 29.562 9.07 28.822C9.07 28.082 9.202 27.408 9.47 26.792C9.736 26.176 10.108 25.64 10.59 25.182C11.07 24.724 11.634 24.372 12.284 24.126C12.932 23.878 13.636 23.754 14.392 23.754C15.24 23.754 16.012 23.9 16.702 24.194C17.392 24.488 17.972 24.92 18.438 25.488L16.968 26.834C16.64 26.452 16.27 26.162 15.854 25.964C15.438 25.768 14.988 25.672 14.502 25.672C14.044 25.672 13.626 25.748 13.242 25.902C12.858 26.056 12.528 26.274 12.248 26.552C11.968 26.834 11.75 27.164 11.598 27.546C11.444 27.928 11.366 28.354 11.366 28.82C11.366 29.286 11.444 29.712 11.598 30.096L11.596 30.1ZM21.648 30.1C21.802 30.482 22.02 30.812 22.298 31.094C22.578 31.374 22.91 31.59 23.292 31.744C23.674 31.898 24.094 31.974 24.552 31.974C25.038 31.974 25.49 31.874 25.904 31.674C26.32 31.472 26.692 31.182 27.018 30.798L28.488 32.142C28.022 32.712 27.442 33.146 26.752 33.444C26.06 33.742 25.288 33.892 24.428 33.892C23.672 33.892 22.97 33.768 22.32 33.52C21.67 33.274 21.11 32.92 20.632 32.464C20.156 32.006 19.786 31.47 19.52 30.854C19.254 30.236 19.12 29.562 19.12 28.822C19.12 28.082 19.252 27.408 19.52 26.792C19.786 26.176 20.158 25.64 20.64 25.182C21.12 24.724 21.684 24.372 22.334 24.126C22.982 23.878 23.686 23.754 24.442 23.754C25.292 23.754 26.062 23.9 26.752 24.194C27.442 24.488 28.022 24.92 28.488 25.488L27.018 26.834C26.692 26.452 26.32 26.162 25.904 25.964C25.49 25.768 25.038 25.672 24.552 25.672C24.094 25.672 23.676 25.748 23.292 25.902C22.908 26.056 22.578 26.274 22.298 26.552C22.018 26.834 21.8 27.164 21.648 27.546C21.494 27.928 21.416 28.354 21.416 28.82C21.416 29.286 21.494 29.712 21.648 30.096V30.1ZM38.176 25.774H35.04V33.726H32.772V25.774H29.636V23.926H38.178V25.774H38.176ZM18.142 40.748H29.858C29.858 43.984 27.236 46.606 24 46.606C20.764 46.606 18.142 43.984 18.142 40.748Z" fill="#1C1B1F"></path>
</svg>