<svg width="48" height="48" viewBox="0 0 48 48" fill="none" xmlns="http://www.w3.org/2000/svg">
<path d="M46 21.802V17.432H38.546V9.454H30.568V2H26.198V9.454H21.802V2H17.432V9.454H9.454V17.432H2V21.802H9.454V26.198H2V30.568H9.454V38.546H17.432V46H21.802V38.546H26.198V46H30.568V38.546H38.546V30.568H46V26.198H38.546V21.802H46ZM32.992 20.518H29.766V26.512H32.992V29.282H29.766V32.506H26.996V29.282H21.004V32.506H18.234V29.282H15.008V26.512H18.234V20.518H15.008V17.748H18.234V14.522H21.004V17.748H26.996V14.522H29.766V17.748H32.992V20.518ZM21.004 20.518H26.996V26.512H21.004V20.518Z" fill="#1C1B1F"></path>
</svg>