<svg width="48" height="48" viewBox="0 0 48 48" fill="none" xmlns="http://www.w3.org/2000/svg">
<path d="M18.142 40.748H29.858C29.858 43.984 27.236 46.606 24 46.606C20.764 46.606 18.142 43.984 18.142 40.748ZM16.176 26.144C15.696 25.898 15.128 25.772 14.474 25.772H12.416V31.878H14.474C15.128 31.878 15.694 31.754 16.176 31.506C16.656 31.258 17.03 30.902 17.296 30.442C17.562 29.98 17.694 29.44 17.694 28.824C17.694 28.2 17.562 27.658 17.296 27.2C17.03 26.742 16.656 26.392 16.176 26.144ZM34.382 29.274C34.046 29.274 33.752 29.34 33.5 29.472C33.248 29.604 33.05 29.776 32.906 29.996C32.762 30.216 32.69 30.47 32.69 30.76C32.69 31.032 32.76 31.276 32.898 31.494C33.038 31.714 33.234 31.886 33.486 32.014C33.738 32.138 34.046 32.202 34.41 32.202C34.728 32.202 35.01 32.146 35.258 32.028C35.506 31.91 35.7 31.74 35.84 31.516C35.978 31.294 36.048 31.036 36.048 30.746C36.048 30.298 35.896 29.942 35.592 29.676C35.29 29.408 34.884 29.274 34.382 29.274ZM46 37.868H2C2 28.082 8.396 19.796 17.23 16.94V2.146H21.734V15.984C22.478 15.908 23.234 15.868 24 15.868C24.766 15.868 25.52 15.908 26.266 15.984V2.146H30.77V16.94C39.606 19.796 46 28.08 46 37.868ZM19.992 28.826C19.992 27.836 19.764 26.976 19.306 26.242C18.848 25.51 18.214 24.942 17.402 24.534C16.59 24.128 15.652 23.924 14.588 23.924H10.136V33.724H14.588C15.652 33.724 16.59 33.52 17.402 33.114C18.214 32.708 18.85 32.14 19.306 31.406C19.764 30.674 19.992 29.814 19.992 28.824V28.826ZM28.992 23.926H20.452V25.774H23.588V33.728H25.856V25.774H28.99V23.926H28.992ZM38.246 30.632C38.246 30.014 38.096 29.478 37.79 29.02C37.488 28.562 37.082 28.21 36.58 27.958C36.078 27.706 35.508 27.58 34.872 27.58C34.406 27.58 33.978 27.642 33.59 27.77C33.204 27.894 32.87 28.082 32.59 28.328C32.536 28.376 32.508 28.452 32.458 28.504C32.486 27.59 32.718 26.87 33.192 26.382C33.696 25.864 34.368 25.604 35.208 25.604C35.544 25.604 35.866 25.64 36.174 25.71C36.48 25.78 36.77 25.91 37.042 26.094L37.882 24.428C37.536 24.214 37.126 24.05 36.65 23.93C36.176 23.814 35.68 23.756 35.166 23.756C34.178 23.756 33.306 23.962 32.556 24.374C31.804 24.784 31.216 25.382 30.79 26.166C30.366 26.95 30.154 27.912 30.154 29.05C30.154 30.094 30.334 30.98 30.694 31.702C31.054 32.424 31.56 32.972 32.214 33.34C32.866 33.708 33.642 33.892 34.538 33.892C35.238 33.892 35.868 33.76 36.428 33.492C36.986 33.226 37.43 32.85 37.758 32.36C38.084 31.87 38.246 31.294 38.246 30.632Z" fill="#1C1B1F"></path>
</svg>