<svg width="48" height="48" viewBox="0 0 48 48" fill="none" xmlns="http://www.w3.org/2000/svg">
<path d="M17.112 27.202C17.378 27.66 17.51 28.2 17.51 28.826C17.51 29.444 17.378 29.982 17.112 30.444C16.846 30.906 16.472 31.262 15.992 31.508C15.512 31.756 14.944 31.88 14.29 31.88H12.232V25.776H14.29C14.944 25.776 15.51 25.9 15.992 26.148C16.472 26.394 16.846 26.748 17.112 27.204V27.202ZM33.332 27.86C33.806 27.86 34.184 27.752 34.458 27.538C34.732 27.324 34.87 27.024 34.87 26.642C34.87 26.26 34.728 25.96 34.442 25.746C34.158 25.534 33.788 25.426 33.33 25.426C32.88 25.426 32.518 25.534 32.236 25.746C31.956 25.96 31.816 26.266 31.816 26.656C31.816 27.032 31.952 27.324 32.222 27.538C32.494 27.752 32.864 27.86 33.332 27.86ZM33.332 29.414C32.772 29.414 32.326 29.538 31.994 29.79C31.662 30.042 31.498 30.378 31.498 30.798C31.498 31.248 31.662 31.596 31.994 31.848C32.326 32.1 32.772 32.224 33.332 32.224C33.9 32.224 34.352 32.1 34.682 31.848C35.014 31.596 35.18 31.246 35.18 30.798C35.18 30.378 35.014 30.042 34.682 29.79C34.352 29.538 33.9 29.414 33.332 29.414ZM32.902 46.606C36.138 46.606 38.76 43.984 38.76 40.748H27.044C27.044 43.984 29.666 46.606 32.902 46.606ZM15.098 46.606C18.334 46.606 20.956 43.984 20.956 40.748H9.24C9.24 43.984 11.862 46.606 15.098 46.606ZM46 37.868H2C2 28.082 8.396 19.796 17.23 16.94V2.146H21.734V15.984C22.478 15.908 23.234 15.868 24 15.868C24.766 15.868 25.52 15.908 26.266 15.984V2.146H30.77V16.94C39.606 19.796 46 28.08 46 37.868ZM19.806 28.824C19.806 27.836 19.578 26.974 19.12 26.242C18.662 25.51 18.028 24.94 17.216 24.534C16.404 24.13 15.466 23.926 14.402 23.926H9.95V33.724H14.402C15.466 33.724 16.404 33.52 17.216 33.114C18.028 32.71 18.664 32.14 19.12 31.406C19.576 30.672 19.806 29.814 19.806 28.824ZM28.808 23.926H20.268V25.774H23.404V33.726H25.672V25.774H28.806V23.926H28.808ZM37.46 30.882C37.46 30.284 37.29 29.774 36.948 29.348C36.694 29.03 36.336 28.788 35.926 28.582C36.21 28.412 36.462 28.218 36.648 27.978C36.956 27.582 37.11 27.102 37.11 26.542C37.11 25.974 36.952 25.482 36.634 25.066C36.318 24.65 35.876 24.328 35.312 24.1C34.748 23.872 34.088 23.758 33.332 23.758C32.594 23.758 31.94 23.872 31.372 24.1C30.802 24.328 30.358 24.65 30.042 25.066C29.726 25.482 29.566 25.974 29.566 26.542C29.566 27.102 29.722 27.582 30.034 27.978C30.222 28.216 30.472 28.408 30.75 28.578C30.334 28.784 29.972 29.026 29.718 29.344C29.382 29.764 29.214 30.278 29.214 30.884C29.214 31.502 29.386 32.034 29.732 32.488C30.078 32.942 30.556 33.288 31.168 33.53C31.78 33.772 32.5 33.894 33.332 33.894C34.164 33.894 34.886 33.772 35.508 33.53C36.13 33.288 36.61 32.94 36.95 32.488C37.292 32.034 37.462 31.502 37.462 30.884L37.46 30.882Z" fill="#1C1B1F"></path>
</svg>