<svg width="48" height="48" viewBox="0 0 48 48" fill="none" xmlns="http://www.w3.org/2000/svg">
<g clip-path="url(#clip0_1_2821)">
<path d="M41.4016 40.1999C41.0016 40.7999 40.4016 41.3999 39.8016 41.9999C31.0016 49.9999 17.0016 49.9999 8.20156 41.9999C7.60156 41.3999 7.20156 40.7999 6.60156 40.1999L10.2016 36.7999C10.8016 37.3999 11.2016 37.9999 11.8016 38.5999C18.6016 44.7999 29.4016 44.7999 36.2016 38.5999C36.8016 37.9999 37.2016 37.3999 37.8016 36.7999L41.4016 40.1999ZM17.0016 30.5999L13.6016 33.7999C14.0016 34.3999 14.6016 34.9999 15.2016 35.5999C20.0016 39.9999 28.0016 39.9999 32.6016 35.5999C33.2016 34.9999 33.8016 34.3999 34.2016 33.7999L30.8016 30.5999C30.4016 31.3999 30.0016 31.9999 29.4016 32.5999C26.4016 35.3999 21.4016 35.3999 18.4016 32.5999C17.8016 31.9999 17.4016 31.3999 17.0016 30.5999ZM17.3216 23.8079V23.7879C17.3216 20.0879 20.3216 17.1079 24.0016 17.1079C27.6816 17.1079 30.6816 20.1079 30.6816 23.7879V24.1679H34.6816C34.6816 24.1679 34.7016 24.1679 34.7016 24.1479V18.2679C34.7016 15.9679 32.9856 14.0959 30.7656 13.8059V1.48389H26.2616V13.7479H21.7316V1.48389H17.2276V13.8099C15.0196 14.1119 13.3016 15.9779 13.3016 18.2679V24.1879H17.3216V23.8079ZM28.0796 21.1279C27.9196 20.8679 27.7396 20.6279 27.5196 20.4079C27.3996 20.2679 27.2796 20.1679 27.1396 20.0479C26.6396 19.6279 26.0796 19.3079 25.4596 19.1279C25.1196 19.0279 24.7596 18.9479 24.3996 18.9279H24.0196C23.8396 18.9279 23.6796 18.9279 23.5196 18.9479C21.0396 19.1879 19.1596 21.2879 19.1596 23.7679V24.1479C19.1996 24.6679 19.3196 25.1679 19.5196 25.6279C19.5796 25.7679 19.6396 25.9279 19.7196 26.0679C20.4996 27.4679 21.8996 28.4079 23.4996 28.5679C23.6596 28.5879 23.8396 28.5879 23.9996 28.5879H24.3796C24.7396 28.5679 25.0996 28.4879 25.4396 28.3879C25.7596 28.3079 26.0396 28.1879 26.3196 28.0279C26.4796 27.9279 26.6596 27.8279 26.8196 27.7079C26.9396 27.6279 27.0596 27.5279 27.1796 27.4279C28.1396 26.6079 28.7396 25.4279 28.8396 24.1679C28.8596 24.0479 28.8596 23.9079 28.8596 23.7879C28.8596 23.3679 28.7996 22.9479 28.6996 22.5479C28.5796 22.1279 28.3996 21.7079 28.1796 21.3279V21.3079C28.1616 21.2479 28.1216 21.1879 28.0796 21.1279Z" fill="#1C1B1F"></path>
</g>
<defs>
<clipPath id="clip0_1_2821">
<rect width="48" height="48" fill="white"></rect>
</clipPath>
</defs>
</svg>