<svg width="48" height="48" viewBox="0 0 48 48" fill="none" xmlns="http://www.w3.org/2000/svg">
<g clip-path="url(#clip0_1_2843)">
<path d="M23.206 43.02C23.876 44.444 24.76 45.744 25.822 46.882C23.862 47.55 21.808 47.902 19.65 47.902C16.964 47.902 14.424 47.384 12.03 46.35C9.636 45.316 7.548 43.918 5.77 42.158C3.992 40.398 2.586 38.33 1.552 35.952C0.518 33.576 0 31.026 0 28.304C0 24.022 1.224 20.22 3.674 16.9C6.124 13.58 9.254 11.23 13.064 9.852V0H17.418V8.818C17.78 8.746 18.144 8.71 18.506 8.71H19.65C20.012 8.71 20.366 8.72 20.712 8.738C21.056 8.756 21.41 8.784 21.774 8.82V0H26.128V9.798C29.974 11.14 33.114 13.49 35.544 16.846C36.652 18.376 37.494 20.008 38.098 21.73C37.66 21.692 37.22 21.662 36.772 21.662C35.67 21.662 34.598 21.79 33.564 22.016C32.822 20.35 31.768 18.812 30.372 17.418C27.396 14.442 23.804 12.954 19.594 12.954C15.384 12.954 11.792 14.442 8.816 17.418C5.84 20.394 4.352 23.986 4.352 28.196C4.352 32.406 5.84 35.998 8.816 38.974C11.792 41.95 15.384 43.438 19.594 43.438C20.856 43.438 22.056 43.288 23.206 43.02ZM21.772 36.904H17.418V40.17H21.772V36.904ZM19.596 16.22C17.492 16.22 15.694 16.964 14.208 18.452C12.722 19.94 11.976 21.736 11.976 23.84C11.976 24.928 12.258 25.954 12.82 26.916C13.382 27.878 14.008 28.802 14.698 29.692C15.388 30.582 16.014 31.434 16.576 32.25C17.138 33.066 17.42 33.892 17.42 34.726H21.774C21.774 33.892 22.056 33.066 22.618 32.25C23.18 31.434 23.806 30.58 24.496 29.692C25.186 28.802 25.812 27.878 26.374 26.916C26.936 25.954 27.218 24.93 27.218 23.84C27.218 21.736 26.474 19.94 24.986 18.452C23.498 16.964 21.7 16.22 19.596 16.22ZM48 45.28L45.378 47.902L40.602 43.126C40.04 43.47 39.44 43.726 38.8 43.898C38.16 44.07 37.482 44.156 36.764 44.156C36.58 44.156 36.41 44.118 36.23 44.106C34.404 43.986 32.81 43.29 31.474 41.954C31.346 41.826 31.256 41.684 31.14 41.552C29.916 40.166 29.274 38.544 29.274 36.664C29.274 34.604 30.008 32.84 31.474 31.374C32.8 30.048 34.382 29.354 36.194 29.226C36.386 29.212 36.568 29.174 36.766 29.174C38.602 29.174 40.188 29.79 41.552 30.954C41.72 31.096 41.896 31.214 42.056 31.374C43.522 32.84 44.256 34.604 44.256 36.664C44.256 37.382 44.17 38.06 43.998 38.7C43.826 39.34 43.568 39.94 43.226 40.502L48.002 45.278L48 45.28ZM40.51 36.664C40.514 36.528 40.494 36.402 40.486 36.272C40.428 35.386 40.096 34.622 39.458 33.996C38.724 33.278 37.828 32.92 36.766 32.92C36.382 32.92 36.046 33.02 35.708 33.114C35.11 33.28 34.556 33.538 34.098 33.996C33.38 34.714 33.022 35.604 33.022 36.664C33.022 37.342 33.222 37.922 33.514 38.46C33.68 38.764 33.838 39.072 34.098 39.332C34.816 40.05 35.706 40.408 36.766 40.408C37.668 40.408 38.41 40.134 39.054 39.684C39.168 39.604 39.306 39.566 39.412 39.472C40.114 38.848 40.48 37.912 40.512 36.662L40.51 36.664Z" fill="#1C1B1F"></path>
</g>
<defs>
<clipPath id="clip0_1_2843">
<rect width="48" height="48" fill="white"></rect>
</clipPath>
</defs>
</svg>