<svg width="48" height="48" viewBox="0 0 48 48" fill="none" xmlns="http://www.w3.org/2000/svg">
<path d="M30.77 16.94V2.146H26.266V15.984C25.522 15.908 24.766 15.868 24 15.868C23.234 15.868 22.48 15.908 21.734 15.984V2.146H17.23V16.94C8.394 19.796 2 28.08 2 37.868H46C46 28.082 39.604 19.796 30.77 16.94ZM21.138 22.502C14.196 22.502 8.368 27.368 6.886 33.868H6.446C8.27 25.862 15.448 19.868 23.998 19.868C32.548 19.868 39.726 25.862 41.55 33.868H35.386C33.904 27.368 28.078 22.502 21.134 22.502H21.138ZM18.142 40.748H29.858C29.858 43.984 27.236 46.606 24 46.606C20.764 46.606 18.142 43.984 18.142 40.748Z" fill="#1C1B1F"></path>
</svg>