<svg width="48" height="48" viewBox="0 0 48 48" fill="none" xmlns="http://www.w3.org/2000/svg">
<g clip-path="url(#clip0_1_2825)">
<path d="M36.2016 38.5998C29.4016 44.7998 18.6016 44.7998 11.8016 38.5998C11.2016 37.9998 10.8016 37.3998 10.2016 36.7998L6.60156 40.1998C7.20156 40.7998 7.60156 41.3998 8.20156 41.9998C17.0016 49.9998 31.0016 49.9998 39.8016 41.9998C40.4016 41.3998 41.0016 40.7998 41.4016 40.1998L37.8016 36.7998C37.2016 37.3998 36.8016 37.9998 36.2016 38.5998Z" fill="#1C1B1F"></path>
<path d="M32.6016 35.6001C33.2016 35.0001 33.8016 34.4001 34.2016 33.8001L30.8016 30.6001C30.4016 31.4001 30.0016 32.0001 29.4016 32.6001C26.4016 35.4001 21.4016 35.4001 18.4016 32.6001C17.8016 32.0001 17.4016 31.4001 17.0016 30.6001L13.6016 33.8001C14.0016 34.4001 14.6016 35.0001 15.2016 35.6001C20.0016 40.0001 28.0016 40.0001 32.6016 35.6001Z" fill="#1C1B1F"></path>
<path d="M30.7656 13.7479V1.48389H26.2616V13.7479H21.7316V1.48389H17.2276V13.7479H6.60156V18.2519H22.0016V20.9999C20.2016 21.7999 19.0016 23.5999 19.0016 25.5999C19.0016 28.3999 21.2016 30.5999 24.0016 30.5999C26.8016 30.5999 29.0016 28.3999 29.0016 25.5999C29.0016 23.5999 27.8016 21.7999 26.0016 20.9999V18.2519H41.4016V13.7479H30.7656Z" fill="#1C1B1F"></path>
</g>
<defs>
<clipPath id="clip0_1_2825">
<rect width="48" height="48" fill="white"></rect>
</clipPath>
</defs>
</svg>