<svg width="48" height="48" viewBox="0 0 48 48" fill="none" xmlns="http://www.w3.org/2000/svg">
<path d="M30.764 15.6919V1.48389H26.26V15.6919H21.73V1.48389H17.226V15.6919H2V46.1119H46V15.6919H30.764ZM24.18 26.7319V26.7119C24.18 26.7119 24.18 26.7179 24.18 26.7219C24.18 26.7259 24.18 26.7279 24.18 26.7319ZM17.952 32.5379C18.538 33.5119 18.896 34.6419 18.896 35.8619C18.896 39.4399 15.996 42.3419 12.416 42.3419C8.836 42.3419 5.936 39.4419 5.936 35.8619C5.936 32.2819 8.836 29.3819 12.416 29.3819C13.636 29.3819 14.766 29.7399 15.74 30.3259L25.008 21.0579L27.218 23.2679L17.95 32.5359L17.952 32.5379ZM35.584 42.3419C32.006 42.3419 29.104 39.4419 29.104 35.8619C29.104 32.2819 32.004 29.3819 35.584 29.3819C39.164 29.3819 42.064 32.2819 42.064 35.8619C42.064 39.4419 39.164 42.3419 35.584 42.3419ZM24.18 26.7119C24.18 26.7119 24.18 26.7179 24.18 26.7219C24.18 26.7259 24.18 26.7279 24.18 26.7319V26.7119Z" fill="#1C1B1F"></path>
</svg>