<svg width="48" height="48" viewBox="0 0 48 48" fill="none" xmlns="http://www.w3.org/2000/svg">
<path d="M30.764 15.6919V1.48389H26.26V15.6919H21.73V1.48389H17.226V15.6919H2V46.1119H46V15.6919H30.764ZM11.204 42.9119C8.79 42.9119 6.834 40.9559 6.834 38.5419C6.834 36.1279 8.79 34.1719 11.204 34.1719C13.618 34.1719 15.574 36.1279 15.574 38.5419C15.574 40.9559 13.618 42.9119 11.204 42.9119ZM21.7 36.8999L13.448 28.6479C12.792 29.0439 12.03 29.2859 11.206 29.2859C8.792 29.2859 6.836 27.3299 6.836 24.9159C6.836 22.5019 8.792 20.5459 11.206 20.5459C13.62 20.5459 15.576 22.5019 15.576 24.9159C15.576 25.7379 15.334 26.4999 14.938 27.1579L23.19 35.4099L21.7 36.8999ZM42.714 44.3119H40.756V41.6419H33.982V39.1719H40.756V36.4899H42.714V44.3119ZM42.472 33.9639C42.192 34.5979 41.782 35.1299 41.244 35.5539L39.82 33.9819C40.154 33.6979 40.408 33.3879 40.582 33.0459C40.756 32.7039 40.844 32.3319 40.844 31.9219C40.844 31.5639 40.786 31.2359 40.67 30.9379C40.552 30.6379 40.384 30.3819 40.164 30.1699C39.944 29.9579 39.68 29.7919 39.372 29.6699C39.066 29.5499 38.724 29.4899 38.35 29.4899C37.974 29.4899 37.634 29.5499 37.326 29.6699C37.018 29.7919 36.754 29.9579 36.534 30.1699C36.314 30.3799 36.146 30.6359 36.03 30.9379C35.912 31.2359 35.854 31.5639 35.854 31.9219C35.854 32.3299 35.942 32.7039 36.116 33.0459C36.292 33.3879 36.55 33.6979 36.89 33.9819L35.468 35.5539C34.926 35.1299 34.514 34.5979 34.234 33.9639C33.95 33.3279 33.81 32.6039 33.81 31.7979C33.81 31.1079 33.92 30.4719 34.14 29.8899C34.36 29.3079 34.672 28.7999 35.076 28.3679C35.478 27.9339 35.958 27.5979 36.518 27.3559C37.074 27.1159 37.686 26.9939 38.352 26.9939C39.018 26.9939 39.628 27.1159 40.186 27.3559C40.742 27.5979 41.224 27.9339 41.626 28.3679C42.03 28.7999 42.342 29.3079 42.562 29.8899C42.782 30.4719 42.894 31.1079 42.894 31.7979C42.894 32.6039 42.754 33.3279 42.476 33.9639H42.472ZM42.472 24.9439C42.192 25.5799 41.782 26.1099 41.244 26.5359L39.82 24.9619C40.154 24.6799 40.408 24.3679 40.582 24.0259C40.756 23.6839 40.844 23.3119 40.844 22.9019C40.844 22.5439 40.786 22.2159 40.67 21.9159C40.552 21.6179 40.384 21.3619 40.164 21.1499C39.944 20.9379 39.68 20.7719 39.372 20.6499C39.066 20.5279 38.724 20.4679 38.35 20.4679C37.974 20.4679 37.634 20.5279 37.326 20.6499C37.018 20.7699 36.754 20.9359 36.534 21.1499C36.314 21.3619 36.146 21.6179 36.03 21.9159C35.912 22.2159 35.854 22.5439 35.854 22.9019C35.854 23.3099 35.942 23.6839 36.116 24.0259C36.292 24.3659 36.55 24.6799 36.89 24.9619L35.468 26.5359C34.926 26.1099 34.514 25.5799 34.234 24.9439C33.95 24.3079 33.81 23.5859 33.81 22.7799C33.81 22.0899 33.92 21.4519 34.14 20.8699C34.36 20.2879 34.672 19.7799 35.076 19.3479C35.478 18.9159 35.958 18.5779 36.518 18.3379C37.074 18.0959 37.686 17.9759 38.352 17.9759C39.018 17.9759 39.628 18.0979 40.186 18.3379C40.742 18.5799 41.224 18.9159 41.626 19.3479C42.03 19.7799 42.342 20.2879 42.562 20.8699C42.782 21.4519 42.894 22.0879 42.894 22.7799C42.894 23.5859 42.754 24.3079 42.476 24.9439H42.472Z" fill="#1C1B1F"></path>
</svg>