<svg width="48" height="48" viewBox="0 0 48 48" fill="none" xmlns="http://www.w3.org/2000/svg">
<path d="M24.18 26.7119C24.18 26.7119 24.18 26.7179 24.18 26.7219C24.18 26.7259 24.18 26.7279 24.18 26.7319V26.7119ZM46 15.6919V46.1119H2V15.6919H17.226V1.48389H21.73V15.6919H26.26V1.48389H30.764V15.6919H46ZM15.574 38.5419C15.574 36.1279 13.618 34.1719 11.204 34.1719C8.79 34.1719 6.834 36.1279 6.834 38.5419C6.834 40.9559 8.79 42.9119 11.204 42.9119C13.618 42.9119 15.574 40.9559 15.574 38.5419ZM23.19 35.4099L14.938 27.1579C15.334 26.4999 15.576 25.7379 15.576 24.9159C15.576 22.5019 13.62 20.5459 11.206 20.5459C8.792 20.5459 6.836 22.5019 6.836 24.9159C6.836 27.3299 8.792 29.2859 11.206 29.2859C12.03 29.2859 12.792 29.0439 13.448 28.6479L21.7 36.8999L23.19 35.4099ZM24.18 26.7219C24.18 26.7219 24.18 26.7159 24.18 26.7119V26.7319C24.18 26.7319 24.18 26.7259 24.18 26.7219ZM41.634 41.0999H40.362L41.634 42.9139V41.0999ZM41.634 38.6279H38.63L39.526 39.9059H41.634V38.6279ZM41.634 36.1559H36.896L37.792 37.4339H41.634V36.1559ZM41.634 33.4539H35.002L36.06 34.9619H41.634V33.4539ZM41.634 29.9939H32.576L34.164 32.2599H41.634V29.9939ZM41.634 25.7619H29.61L31.74 28.7999H41.634V25.7619ZM41.634 20.5439H25.95L28.772 24.5699H41.634V20.5439Z" fill="#1C1B1F"></path>
</svg>