<svg width="48" height="48" viewBox="0 0 48 48" fill="none" xmlns="http://www.w3.org/2000/svg">
<path d="M45 13.9999H30.8V1.3999H26.2V13.9999H21.6V1.3999H17V13.9999H3C2 13.9999 1 14.9999 1 15.9999V43.9999C1 44.9999 2 45.9999 3 45.9999H45C46 45.9999 47 44.9999 47 43.9999V15.9999C47 14.9999 46 13.9999 45 13.9999ZM28.6 42.5999C27.4 43.7999 25.8 44.5999 24 44.5999C22.2 44.5999 20.6 43.9999 19.4 42.5999C18.2 41.1999 17.4 39.7999 17.4 37.9999C17.4 36.1999 17.6 35.9999 18.2 34.9999C18.8 33.9999 19.4 33.1999 20.2 32.5999L21.4 33.7999C20.6 34.1999 20 34.7999 19.6 35.5999C19.2 36.3999 19 37.1999 19 37.9999C19 39.3999 19.4 40.5999 20.4 41.3999C21.4 42.3999 22.6 42.7999 23.8 42.7999C25 42.7999 26.4 42.3999 27.2 41.3999C28 40.3999 28.6 39.1999 28.6 37.9999C28.6 36.7999 28.4 36.3999 28 35.5999C27.6 34.7999 27 34.1999 26.2 33.7999L27.4 32.5999C28.2 33.1999 29 33.9999 29.4 34.9999C29.8 35.9999 30.2 36.9999 30.2 37.9999C30.2 39.7999 29.6 41.3999 28.2 42.5999H28.6ZM23.2 38.5999V30.3999H24.8V38.5999H23.2ZM42 26.3999C42 27.3999 41 28.3999 40 28.3999H8C7 28.3999 6 27.5999 6 26.3999V19.3999C6 18.3999 7 17.3999 8 17.3999H40C41 17.3999 42 18.3999 42 19.3999V26.3999Z" fill="#1C1B1F"></path>
</svg>